<?xml version="1.0" encoding="UTF-8"?>
<svg id="_レイヤー_2" data-name="レイヤー 2" xmlns="http://www.w3.org/2000/svg" xmlns:xlink="http://www.w3.org/1999/xlink" viewBox="0 0 183.11 135.39">
  <defs>
    <style>
      .cls-1 {
        stroke: #bd7a7d;
        stroke-width: .74px;
      }

      .cls-1, .cls-2, .cls-3, .cls-4, .cls-5 {
        fill: none;
      }

      .cls-6 {
        font-family: ShinMGoPro-Regular-90ms-RKSJ-H, 'A-OTF Shin Maru Go Pro';
        font-size: 4.61px;
      }

      .cls-6, .cls-7, .cls-8, .cls-9 {
        fill: #fff;
      }

      .cls-8 {
        font-family: ShinGoPr5-DeBold-90ms-RKSJ-H, 'A-OTF Shin Go Pr5';
        font-size: 14.91px;
        font-weight: 700;
        letter-spacing: .34em;
      }

      .cls-10 {
        fill: #004f8c;
      }

      .cls-3 {
        stroke-width: 2.27px;
      }

      .cls-3, .cls-9, .cls-4, .cls-5 {
        stroke-miterlimit: 10;
      }

      .cls-3, .cls-4, .cls-5 {
        stroke: #c9caca;
      }

      .cls-11 {
        fill: #da4f52;
      }

      .cls-12, .cls-13 {
        fill: #3e3a39;
        font-family: ShinMGoPro-Medium-90ms-RKSJ-H, 'A-OTF Shin Maru Go Pro';
        font-size: 4.95px;
        font-weight: 500;
      }

      .cls-9 {
        stroke: #007ec4;
        stroke-width: .66px;
      }

      .cls-14 {
        fill: #bd7a7d;
      }

      .cls-13 {
        glyph-orientation-vertical: 0deg;
        text-orientation: upright;
        writing-mode: tb;
      }

      .cls-15 {
        clip-path: url(#clippath);
      }

      .cls-4 {
        stroke-width: 3.03px;
      }

      .cls-16 {
        fill: #4c4645;
      }

      .cls-5 {
        stroke-width: 4.54px;
      }
    </style>
    <clipPath id="clippath">
      <rect class="cls-2" x="20.88" y="5.74" width="139.21" height="124.64"/>
    </clipPath>
  </defs>
  <g id="_レイヤー_2-2" data-name="レイヤー 2">
    <rect class="cls-9" x=".33" y=".33" width="182.45" height="134.73" rx="4.68" ry="4.68"/>
  </g>
  <g id="_レイヤー_3" data-name="レイヤー 3">
    <g class="cls-15">
      <g>
        <polyline class="cls-3" points="137.88 17.24 122.74 39.8 122.74 63.31"/>
        <rect class="cls-11" x="66.77" y="63" width="8.9" height="21.74"/>
        <g>
          <rect class="cls-10" x="121.89" y="121.16" width="14.5" height="6.4"/>
          <text class="cls-6" transform="translate(124.19 126.06) scale(1.07 1)"><tspan x="0" y="0">備前</tspan></text>
        </g>
        <g>
          <rect class="cls-10" x="143.52" y="66.03" width="14.5" height="6.4"/>
          <text class="cls-6" transform="translate(145.82 70.93) scale(1.07 1)"><tspan x="0" y="0">川尻</tspan></text>
        </g>
        <text class="cls-12" transform="translate(60.81 112.97)"><tspan x="0" y="0">TSUTAYA●</tspan></text>
        <text class="cls-12" transform="translate(88.64 36.46)"><tspan x="0" y="0">セレモール●</tspan></text>
        <text class="cls-13" transform="translate(29.45 42.3)"><tspan x="0" y="0">●ファミマ</tspan></text>
        <text class="cls-12" transform="translate(99.3 113.2)"><tspan x="0" y="0">●焼肉キング</tspan></text>
        <text class="cls-12" transform="translate(102.31 104.66)"><tspan x="0" y="0">●ジョーシン</tspan></text>
        <line class="cls-5" x1="20.88" y1="117.54" x2="160.75" y2="117.54"/>
        <line class="cls-4" x1="20.88" y1="39.25" x2="160.75" y2="39.25"/>
        <polyline class="cls-5" points="98.83 -2.71 139.91 62.5 139.91 142.98"/>
        <g>
          <path class="cls-16" d="M144.54,115.15h-8.83c-1.37,0-2.46,1.07-2.46,2.41s1.09,2.39,2.46,2.39h8.83c1.35,0,2.45-1.07,2.45-2.39s-1.1-2.41-2.45-2.41Z"/>
          <path class="cls-7" d="M136.03,115.73c-1.03,0-1.87.81-1.87,1.82s.84,1.82,1.87,1.82,1.85-.82,1.85-1.82-.82-1.82-1.85-1.82Z"/>
          <path class="cls-7" d="M140.12,115.73c-1.03,0-1.86.81-1.86,1.82s.83,1.82,1.86,1.82,1.86-.82,1.86-1.82-.82-1.82-1.86-1.82Z"/>
          <path class="cls-7" d="M144.37,115.73c-1.04,0-1.87.81-1.87,1.82s.83,1.82,1.87,1.82,1.86-.82,1.86-1.82-.83-1.82-1.86-1.82Z"/>
        </g>
        <line class="cls-3" x1="160.09" y1="84.33" x2="20.88" y2="84.33"/>
        <g>
          <path class="cls-16" d="M144.54,81.93h-8.83c-1.37,0-2.46,1.07-2.46,2.41s1.09,2.39,2.46,2.39h8.83c1.35,0,2.45-1.07,2.45-2.39s-1.1-2.41-2.45-2.41Z"/>
          <path class="cls-7" d="M136.03,82.51c-1.03,0-1.87.81-1.87,1.82s.84,1.82,1.87,1.82,1.85-.82,1.85-1.82-.82-1.82-1.85-1.82Z"/>
          <path class="cls-7" d="M140.12,82.51c-1.03,0-1.86.81-1.86,1.82s.83,1.82,1.86,1.82,1.86-.82,1.86-1.82-.82-1.82-1.86-1.82Z"/>
          <path class="cls-7" d="M144.37,82.51c-1.04,0-1.87.81-1.87,1.82s.83,1.82,1.87,1.82,1.86-.82,1.86-1.82-.83-1.82-1.86-1.82Z"/>
        </g>
        <g>
          <path class="cls-16" d="M128.34,36.86h-8.83c-1.37,0-2.46,1.07-2.46,2.41s1.09,2.39,2.46,2.39h8.83c1.35,0,2.45-1.07,2.45-2.39s-1.1-2.41-2.45-2.41Z"/>
          <path class="cls-7" d="M119.83,37.44c-1.03,0-1.87.81-1.87,1.82s.84,1.82,1.87,1.82,1.85-.82,1.85-1.82-.82-1.82-1.85-1.82Z"/>
          <path class="cls-7" d="M123.92,37.44c-1.03,0-1.86.81-1.86,1.82s.83,1.82,1.86,1.82,1.86-.82,1.86-1.82-.82-1.82-1.86-1.82Z"/>
          <path class="cls-7" d="M128.17,37.44c-1.04,0-1.87.81-1.87,1.82s.83,1.82,1.87,1.82,1.86-.82,1.86-1.82-.83-1.82-1.86-1.82Z"/>
        </g>
        <line class="cls-3" x1="96.18" y1="84.24" x2="96.18" y2="117.54"/>
        <g>
          <path class="cls-16" d="M109.05,115.15h-8.83c-1.37,0-2.46,1.07-2.46,2.41s1.09,2.39,2.46,2.39h8.83c1.35,0,2.45-1.07,2.45-2.39s-1.1-2.41-2.45-2.41Z"/>
          <path class="cls-7" d="M100.54,115.73c-1.03,0-1.87.81-1.87,1.82s.84,1.82,1.87,1.82,1.85-.82,1.85-1.82-.82-1.82-1.85-1.82Z"/>
          <path class="cls-7" d="M104.63,115.73c-1.03,0-1.86.81-1.86,1.82s.83,1.82,1.86,1.82,1.86-.82,1.86-1.82-.82-1.82-1.86-1.82Z"/>
          <path class="cls-7" d="M108.88,115.73c-1.04,0-1.87.81-1.87,1.82s.83,1.82,1.87,1.82,1.86-.82,1.86-1.82-.83-1.82-1.86-1.82Z"/>
        </g>
        <g>
          <path class="cls-16" d="M91.78,115.15h-8.83c-1.37,0-2.46,1.07-2.46,2.41s1.09,2.39,2.46,2.39h8.83c1.35,0,2.45-1.07,2.45-2.39s-1.1-2.41-2.45-2.41Z"/>
          <path class="cls-7" d="M83.27,115.73c-1.03,0-1.87.81-1.87,1.82s.84,1.82,1.87,1.82,1.85-.82,1.85-1.82-.82-1.82-1.85-1.82Z"/>
          <path class="cls-7" d="M87.36,115.73c-1.03,0-1.86.81-1.86,1.82s.83,1.82,1.86,1.82,1.86-.82,1.86-1.82-.82-1.82-1.86-1.82Z"/>
          <path class="cls-7" d="M91.6,115.73c-1.04,0-1.87.81-1.87,1.82s.83,1.82,1.87,1.82,1.86-.82,1.86-1.82-.83-1.82-1.86-1.82Z"/>
        </g>
        <line class="cls-3" x1="140.81" y1="45.23" x2="140.81" y2="60.36"/>
        <polyline class="cls-3" points="35.67 39.98 35.67 63.26 109.32 63.26 109.32 40.41"/>
        <line class="cls-3" x1="87.44" y1="39.57" x2="87.44" y2="85.24"/>
        <path class="cls-11" d="M52.77,23.49l16.33,42.48-6.6-42.07-9.72-.41Z"/>
        <rect class="cls-11" x="30.94" y="8.7" width="47.19" height="23.57" rx="1.3" ry="1.3"/>
        <text class="cls-8" transform="translate(37.1 25.94)"><tspan x="0" y="0">現地</tspan></text>
        <g>
          <path class="cls-16" d="M144.54,60.14h-8.83c-1.37,0-2.46,1.07-2.46,2.41s1.09,2.39,2.46,2.39h8.83c1.35,0,2.45-1.07,2.45-2.39s-1.1-2.41-2.45-2.41Z"/>
          <path class="cls-7" d="M136.03,60.73c-1.03,0-1.87.81-1.87,1.82s.84,1.82,1.87,1.82,1.85-.82,1.85-1.82-.82-1.82-1.85-1.82Z"/>
          <path class="cls-7" d="M140.12,60.73c-1.03,0-1.86.81-1.86,1.82s.83,1.82,1.86,1.82,1.86-.82,1.86-1.82-.82-1.82-1.86-1.82Z"/>
          <path class="cls-7" d="M144.37,60.73c-1.04,0-1.87.81-1.87,1.82s.83,1.82,1.87,1.82,1.86-.82,1.86-1.82-.83-1.82-1.86-1.82Z"/>
        </g>
        <line class="cls-1" x1="83.7" y1="121.91" x2="109.32" y2="121.91"/>
        <g>
          <line class="cls-1" x1="96.18" y1="121.78" x2="96.18" y2="112.83"/>
          <path class="cls-14" d="M96.18,109.68c.55,1.48,1.49,3.32,2.48,4.46l-2.48-.9-2.48.9c.99-1.14,1.93-2.98,2.48-4.46Z"/>
        </g>
        <g>
          <polyline class="cls-1" points="93.46 96.43 93.46 86.72 86.85 86.72"/>
          <path class="cls-14" d="M83.7,86.72c1.48-.55,3.32-1.49,4.46-2.48l-.9,2.48.9,2.48c-1.14-.99-2.98-1.93-4.46-2.48Z"/>
        </g>
        <g>
          <polyline class="cls-1" points="101.04 43.1 91.33 43.1 91.33 49.72"/>
          <path class="cls-14" d="M91.33,52.86c-.55-1.48-1.49-3.32-2.48-4.46l2.48.9,2.48-.9c-.99,1.14-1.93,2.98-2.48,4.46Z"/>
        </g>
        <g>
          <polyline class="cls-1" points="134.91 98.36 134.91 88.65 128.3 88.65"/>
          <path class="cls-14" d="M125.15,88.65c1.48-.55,3.32-1.49,4.46-2.48l-.9,2.48.9,2.48c-1.14-.99-2.98-1.93-4.46-2.48Z"/>
        </g>
        <g>
          <polyline class="cls-1" points="149.35 113.31 141.19 113.31 141.19 104.03"/>
          <path class="cls-14" d="M141.19,100.89c.55,1.48,1.49,3.32,2.48,4.46l-2.48-.9-2.48.9c.99-1.14,1.93-2.98,2.48-4.46Z"/>
        </g>
        <g>
          <polyline class="cls-1" points="84.48 52.79 84.48 60.94 75.21 60.94"/>
          <path class="cls-14" d="M72.06,60.94c1.48-.55,3.32-1.49,4.46-2.48l-.9,2.48.9,2.48c-1.14-.99-2.98-1.93-4.46-2.48Z"/>
        </g>
        <g>
          <polyline class="cls-1" points="128.91 53.73 122.28 43.57 115.09 43.57"/>
          <path class="cls-14" d="M111.94,43.57c1.48-.55,3.32-1.49,4.46-2.48l-.9,2.48.9,2.48c-1.14-.99-2.98-1.93-4.46-2.48Z"/>
        </g>
      </g>
    </g>
    <text class="cls-12" transform="translate(143.61 91.88)"><tspan x="0" y="0">●創作旬菜</tspan><tspan x="0" y="5.3">　紫陽花</tspan></text>
  </g>
</svg>